<?xml version="1.0" encoding="UTF-8"?>
<svg width="64px" height="65px" viewBox="0 0 64 65" version="1.1" xmlns="http://www.w3.org/2000/svg" xmlns:xlink="http://www.w3.org/1999/xlink">
    <title>编组</title>
    <defs>
        <linearGradient x1="50%" y1="0%" x2="50%" y2="100%" id="linearGradient-1">
            <stop stop-color="#F4F7FA" offset="0%"></stop>
            <stop stop-color="#E8ECF3" offset="100%"></stop>
        </linearGradient>
    </defs>
    <g id="页面-1" stroke="none" stroke-width="1" fill="none" fill-rule="evenodd">
        <g id="首页备份" transform="translate(-680, -206)">
            <g id="编组-12" transform="translate(440, 171)">
                <g id="编组-3" transform="translate(200, 36)">
                    <g id="编组" transform="translate(40, 0)">
                        <g id="编组-11" transform="translate(4, 0)">
                            <path d="M27.8117656,0.632146295 L3.60581347,0.632146295 C1.63837155,0.632146295 0.043444755,2.22707309 0.043444755,4.19451501 C0.043444755,4.20890869 0.0435319911,4.22330224 0.0437064585,4.23769487 L0.60208556,50.300978 C0.625728994,52.2514345 2.21359276,53.8201668 4.16419257,53.8201668 L39.7374807,53.8201668 C41.7049226,53.8201668 43.2998494,52.22524 43.2998494,50.2577981 L43.2998494,15.2349255 C43.2998494,14.7419012 43.0954983,14.2709299 42.7354438,13.9341307 L29.0285443,1.11253583 C28.6985645,0.803868775 28.2636086,0.632146295 27.8117656,0.632146295 Z" id="路径-2" stroke="#DBE0E7" stroke-width="1.78118436" fill="url(#linearGradient-1)"></path>
                            <rect id="矩形" fill="#DBE0E7" x="9.20195183" y="24.8139442" width="16.0437938" height="1.78118436" rx="0.890592178"></rect>
                            <rect id="矩形" fill="#DBE0E7" x="9.20195183" y="31.9386816" width="19.6090814" height="1.78118436" rx="0.890592178"></rect>
                            <rect id="矩形" fill="#DBE0E7" x="9.20195183" y="39.063419" width="19.6090814" height="1.78118436" rx="0.890592178"></rect>
                            <path d="M28.900448,0 C28.8783849,4.09566585 28.8563217,8.19133171 28.8342586,12.2869976 C28.8289594,13.2707042 29.6221154,14.0724519 30.6058221,14.0777511 C30.6090204,14.0777683 30.6122187,14.0777769 30.6154171,14.0777769 L44.1565451,14.0777769 L44.1565451,14.0777769 C35.4708781,5.9452391 30.6085718,1.39961936 29.5696261,0.440917716 C29.2066461,0.105972824 28.900448,0 28.900448,0 Z" id="路径-3" fill="#DBE0E7"></path>
                            <g id="编组-7" transform="translate(21.6805, 28.3763)">
                                <ellipse id="椭圆形" fill="#3270FF" cx="17.8264376" cy="17.8118436" rx="17.8264376" ry="17.8118436"></ellipse>
                                <path d="M19.1779858,23.1149638 L23.4306029,18.7769708 L9.90491789,18.7769708 C9.36124763,18.7769708 8.92051582,18.3221264 8.92051582,17.7610474 C8.92051582,17.1999684 9.36124763,16.745124 9.90491789,16.745124 L23.4306029,16.745124 L19.1779858,12.407131 C18.7963099,12.0108828 18.7963099,11.3709272 19.1779858,10.974679 C19.347393,10.7875166 19.5844429,10.6812685 19.8326132,10.6812685 C20.0807836,10.6812685 20.3178334,10.7875166 20.4872406,10.974679 L26.4527174,17.0702195 C26.8255734,17.4897658 26.8255734,18.1339213 26.4527174,18.5534676 L20.4872406,24.6490081 C20.3178334,24.8361705 20.0807836,24.9424186 19.8326132,24.9424186 C19.5844429,24.9424186 19.347393,24.8361705 19.1779858,24.6490081 C18.9627114,24.4560533 18.8390806,24.1762477 18.8390806,23.8819859 C18.8390806,23.5877241 18.9627114,23.3079185 19.1779858,23.1149638 Z" id="路径" fill="#FFFFFF" fill-rule="nonzero" transform="translate(17.8264, 17.8118) rotate(-90) translate(-17.8264, -17.8118)"></path>
                            </g>
                        </g>
                    </g>
                </g>
            </g>
        </g>
    </g>
</svg>